<svg width="556.59869" height="541.66437" xmlns="http://www.w3.org/2000/svg">

 <metadata id="metadata7">image/svg+xml</metadata>
 <g>
  <title>background</title>
  <rect fill="#ffffff" id="canvas_background" height="543.66437" width="558.59869" y="-1" x="-1"/>
 </g>
 <g>
  <title>Layer 1</title>
  <path transform="rotate(42.431, 283.406, 234.394)" fill="#fed27e" stroke-width="0" stroke-linecap="round" stroke-linejoin="round" stroke-miterlimit="4" marker-start="none" marker-mid="none" marker-end="none" id="path3772-6" d="m350.183044,67.703003c-153.432159,87.412567 -153.432159,87.412567 -153.432159,87.412567l-53.832825,220.319427l97.470337,25.650024l153.432098,-87.412781l30.072205,-185.804962l-73.709656,-60.164276z"/>
  <g transform="rotate(42.431, 283.415, 234.371)" id="g4417">
   <path fill="#000000" fill-rule="nonzero" stroke-width="4" id="path3772" d="m350.019104,66.189957a1.495041,1.515821 0 0 0 -0.56073,0.189201l-153.413483,87.41143a1.495041,1.515821 0 0 0 -0.723938,0.971039l-53.839355,220.316803a1.495041,1.515821 0 0 0 1.074265,1.823547l97.471573,25.648163a1.495041,1.515821 0 0 0 1.12146,-0.142365l153.413025,-87.411255a1.495041,1.515821 0 0 0 0.747772,-1.089813l30.084351,-185.787689a1.495041,1.515821 0 0 0 -0.536957,-1.444374l-73.716949,-60.15313a1.495041,1.515821 0 0 0 -1.121033,-0.331558zm0.046326,3.339088l72.222412,58.96891l-29.804626,184.201508l-152.292114,86.771942l-95.463013,-25.127014l53.325867,-218.232758l152.011475,-86.582588z"/>
   <path fill-rule="evenodd" stroke="#000000" stroke-width="1.6pt" id="path4423" d="m345.092651,70.613091c-1.61673,-2.917603 -0.593628,-6.615913 2.283936,-8.255447c2.877655,-1.639343 6.525452,-0.602135 8.142242,2.315445c1.616791,2.917587 0.593628,6.616287 -2.283966,8.255432c-2.877563,1.639534 -6.525024,0.60215 -8.142212,-2.31543z"/>
   <path fill-rule="evenodd" stroke="#000000" stroke-width="1.6pt" id="path4425" d="m193.218842,159.841736c-2.626007,-2.027588 -3.133881,-5.83371 -1.134399,-8.49649c1.999939,-2.662231 5.754333,-3.177582 8.379852,-1.149811c2.626038,2.027557 3.134369,5.833679 1.13446,8.49646c-1.999542,2.662231 -5.753906,3.177582 -8.379913,1.149841z"/>
   <path fill-rule="evenodd" stroke="#000000" stroke-width="1.6pt" id="path4427" d="m145.933929,380.539734c-2.836029,1.712006 -6.508087,0.767883 -8.196701,-2.107513c-1.688614,-2.875763 -0.757278,-6.598999 2.079178,-8.311005c2.835968,-1.712006 6.508087,-0.767914 8.196716,2.10788c1.688599,2.875397 0.757263,6.598999 -2.079193,8.310638z"/>
   <path fill-rule="evenodd" stroke="#000000" stroke-width="1.6pt" id="path4429" d="m246.218201,400.320343c0.424286,3.318451 -1.887756,6.361511 -5.160706,6.791901c-3.273315,0.430786 -6.274719,-1.913483 -6.699463,-5.232269c-0.424377,-3.318817 1.887756,-6.361511 5.160645,-6.792267c3.273376,-0.43045 6.27478,1.913818 6.699524,5.232635z"/>
   <path fill-rule="evenodd" stroke="#000000" stroke-width="1.6pt" id="path4431" d="m397.199646,308.804504c2.703979,1.919403 3.362061,5.702118 1.469086,8.443329c-1.892975,2.741577 -5.623505,3.409149 -8.327515,1.490112c-2.703918,-1.919434 -3.362488,-5.702118 -1.469513,-8.443359c1.893005,-2.741943 5.623993,-3.409119 8.327942,-1.490082z"/>
   <path fill-rule="evenodd" stroke="#000000" stroke-width="1.6pt" id="path4433" d="m421.818512,122.317116c3.082825,-1.195343 6.54187,0.371704 7.720428,3.497803c1.179047,3.125938 -0.36673,6.632652 -3.449951,7.827812c-3.082886,1.195343 -6.541931,-0.371857 -7.72049,-3.497986c-1.178619,-3.12574 0.36673,-6.632622 3.450012,-7.827629z"/>
   <path fill-rule="evenodd" stroke="#000000" stroke-width="1.6pt" id="path4435" d="m345.636963,63.97654c2.070068,-2.606667 5.836548,-3.019249 8.407593,-0.920486c2.570984,2.098564 2.9776,5.917503 0.907928,8.52417c-2.069672,2.607025 -5.836578,3.019249 -8.407623,0.92086c-2.570984,-2.098755 -2.977997,-5.917488 -0.907898,-8.524544z"/>
  </g>
  <line id="svg_2" y2="425.485087" x2="310.989098" y1="369.987032" x1="311.489082" fill-opacity="null" stroke-width="3" stroke="#000000" fill="none"/>
  <line stroke-linecap="null" stroke-linejoin="null" id="svg_3" y2="410.985595" x2="327.488522" y1="424.485122" x1="311.489083" fill-opacity="null" stroke-opacity="null" stroke-width="3" stroke="#000000" fill="none"/>
  <line stroke-linecap="null" stroke-linejoin="null" id="svg_4" y2="410.985595" x2="295.989615" y1="424.485122" x1="311.489049" fill-opacity="null" stroke-opacity="null" stroke-width="3" stroke="#000000" fill="none"/>
  <path d="m192.99324,363.487274c0,0 0.999954,0 1.999924,0c2.499908,0 4.499847,0 6.999756,0c2.499908,0 5.011826,0.409637 11.999573,0c8.543655,-0.500854 17.49939,-0.999969 23.499176,-0.999969c4.999832,0 21.999237,0 27.499054,0c5.999786,0 10.999603,0.999969 16.99939,0.999969c4.999817,0 10.499634,0.999939 19.999298,0.999939c3.999878,0 8.003845,-0.231689 14.499512,0c7.013092,0.250153 10.525818,1.572296 13.999481,1.999939c2.046051,0.251892 4.009613,0.302948 5.999817,0.5c2.537018,0.251221 6.999756,0.499969 9.999634,0.499969c2.999908,0 9.499664,0 16.49942,0c6.499786,0 12.499573,0 17.49939,0c1.999939,0 2.999908,0 3.499878,0l0.999969,0" id="svg_9" stroke-opacity="null" stroke-width="NaN" stroke="null" fill="none"/>
 </g>
</svg>